<svg xmlns="http://www.w3.org/2000/svg" xmlns:xlink="http://www.w3.org/1999/xlink" width="1080" zoomAndPan="magnify" viewBox="0 0 810 809.999993" height="1080" preserveAspectRatio="xMidYMid meet" version="1.0"><defs><clipPath id="eb17f25657"><path d="M 120.84375 203 L 672.09375 203 L 672.09375 703.34375 L 120.84375 703.34375 Z M 120.84375 203 " clip-rule="nonzero"/></clipPath></defs><rect x="-81" width="972" fill="#ffffff" y="-80.999999" height="971.999992" fill-opacity="1"/><rect x="-81" width="972" fill="#ffffff" y="-80.999999" height="971.999992" fill-opacity="1"/><path fill="#ffb43f" d="M 605.375 247.675781 L 553.984375 280.164062 C 538.425781 289.996094 608.0625 365.953125 617.699219 350.28125 L 651.292969 295.679688 C 660.9375 280.007812 665.070312 262.027344 652.347656 248.734375 C 639.632812 235.433594 620.925781 237.835938 605.375 247.675781 Z M 605.375 247.675781 " fill-opacity="1" fill-rule="nonzero"/><path fill="#59586e" d="M 510.621094 190.710938 C 510.621094 239.6875 470.890625 279.394531 421.871094 279.394531 C 372.867188 279.394531 333.128906 239.6875 333.128906 190.710938 C 333.128906 141.734375 372.867188 102.03125 421.871094 102.03125 C 470.890625 102.03125 510.621094 141.738281 510.621094 190.710938 Z M 510.621094 190.710938 " fill-opacity="1" fill-rule="nonzero"/><path fill="#daeeff" d="M 456.886719 187.125 L 469.273438 246.617188 C 473.019531 264.625 369.972656 267.449219 374.53125 249.632812 L 390.429688 187.53125 C 394.996094 169.710938 405.042969 154.234375 423.453125 154.117188 C 441.863281 154.007812 453.136719 169.109375 456.886719 187.125 Z M 456.886719 187.125 " fill-opacity="1" fill-rule="nonzero"/><g clip-path="url(#eb17f25657)"><path fill="#00a1ff" d="M 156.550781 203.113281 C 136.816406 203.113281 120.925781 218.988281 120.925781 238.710938 C 120.925781 258.429688 136.816406 274.296875 156.550781 274.296875 L 251.613281 274.296875 C 271.347656 274.296875 287.226562 290.167969 287.226562 309.886719 C 287.226562 329.605469 271.347656 345.484375 251.613281 345.484375 L 170.863281 345.484375 C 151.128906 345.484375 135.25 361.351562 135.25 381.074219 C 135.25 400.792969 151.128906 416.671875 170.863281 416.671875 L 211.601562 416.671875 C 231.335938 416.671875 247.226562 432.539062 247.226562 452.261719 C 247.226562 471.980469 231.335938 487.859375 211.601562 487.859375 C 185.332031 487.859375 177.53125 508.511719 182.550781 527.25 C 214.410156 630.617188 310.550781 703.675781 421.867188 703.675781 C 560.1875 703.675781 672.320312 591.625 672.320312 453.398438 C 672.320312 315.175781 560.195312 203.113281 421.871094 203.113281 C 420.257812 203.113281 156.550781 203.113281 156.550781 203.113281 Z M 156.550781 203.113281 " fill-opacity="1" fill-rule="nonzero"/></g><path fill="#ffffff" d="M 421.871094 628.125 C 518.449219 628.125 596.742188 549.894531 596.742188 453.382812 C 596.742188 356.878906 518.449219 278.644531 421.878906 278.644531 C 421.878906 278.644531 421.878906 278.644531 421.871094 278.644531 C 325.300781 278.644531 247.007812 356.878906 247.007812 453.382812 C 247.015625 549.894531 325.300781 628.125 421.871094 628.125 Z M 421.871094 628.125 " fill-opacity="1" fill-rule="nonzero"/><path fill="#59586e" d="M 435.644531 347.257812 C 413.527344 347.257812 407.414062 365.472656 403.097656 387.144531 L 390.898438 442.035156 L 362.941406 450.691406 C 341.816406 457.238281 323.023438 461.125 323.023438 483.21875 C 323.023438 505.316406 340.828125 512.230469 362.941406 512.230469 L 424.765625 512.230469 C 446.871094 512.230469 464.679688 494.445312 464.679688 472.347656 L 464.679688 387.144531 C 464.683594 365.050781 457.761719 347.257812 435.644531 347.257812 Z M 435.644531 347.257812 " fill-opacity="1" fill-rule="nonzero"/></svg>